<?xml version="1.0" encoding="UTF-8"?>
<svg id="Layer_1" data-name="Layer 1" xmlns="http://www.w3.org/2000/svg" viewBox="0 0 706.51 116.8">
  <defs>
    <style>
      .cls-1 {
        fill: #151313;
      }
    </style>
  </defs>
  <g>
    <path class="cls-1" d="M87.03,75.95s1.58-8.38,6.25-8.2c0,0,6.09,1.05,4.76,9.14,0,0-.37,2.83-3.81,6.81,0,0-1.06,2.46-.77,4.43s.49,3.94,2.03,4.52c1.54.59,6.13.7,6.61,1.68.47.97,1.16,6.67-.53,7.33s-2.57,1.17-2.94,1.78-2.1,1.37-3.92.8-7.27-4.64-8.22-10.92-3.84-1.58-4.5-1.17-6.26,5.46-10.54,7.1c-4.27,1.64-28.91,10.06-36.91-1.01-8-11.07-8.99-17.94-6.09-25.33,2.9-7.39,11.26-22.15,28.52-27.45,17.26-5.3,19.11,5.07,19.55,6.14s1.84,8.82-.28,9.87c-2.12,1.05-2.26.33-2.26.33v-1.37s-1.3-.46-1.37-1.55c-.07-1.09-.73-4.24-3.92-4.22s-17.82-.5-30.85,19.67c0,0-3.56,7.07-2.25,10.45,1.31,3.38,8.46,13.87,27.77,6.43,19.32-7.44,22.92-12,23.3-13.62l.38-1.62Z"/>
    <path class="cls-1" d="M194.35,26.08c-1.3-1.83-8.22-13.06-9.55-13.8s.23-.74-1.32-.74c-1.55,0-2.38-.21-2.85,1-.47,1.22-1.98,3.32-1.4,6.66.58,3.34,2.31,4.69,3.29,5.81.98,1.12,19.23,25.49,20.87,32.59,1.64,7.1,1.59,3.55,1.67,7.55.07,4.01-.1,9.77-3.44,13.17-3.34,3.41-10.57,10.16-14.19,10.58-3.62.41-10.46-.97-3.78-10.61,6.68-9.64,8.62-6.39,9.22-8.43.6-2.04.75-9.62-1.89-9.55-2.64.08-13.04,2.93-15.04,1.6-2-1.33-6.07-3.62-8.47-4.02-2.4-.39-5.49-3.11-7.53-.79-2.04,2.32-1.82,2.85-3.82,2.98s-.79-.95-4.18.18c-3.39,1.13-6.29,2.87-13.49,2.96-7.2.1-10.26.66-11.51-.36-1.25-1.01,1.08-1.71-3.2-1.53-4.27.18-6.94-.1-11.22,5.64-4.28,5.75-7.35,10.59-5.51,19.32,1.84,8.73,7.12,15.78,14.11,15.33,6.99-.45,13.44-3.78,16.49-7.44,0,0,.92-1.34,1.63-.1.72,1.23,5.35,6.68,13.21,4.08,7.86-2.6,16.6-7.08,18.83-9.32,2.23-2.24,2.68-.9,3.08,1.17.41,2.07,3.98,9.41,8.72,9.47,4.75.06,11.06,1.85,25.76-16.51,14.69-18.36-13.19-55.06-14.49-56.9ZM134.69,84.25c-3.09,3-10.35,8.25-14.05,6.99-3.71-1.27-6.66-2.58-5.94-8.31.73-5.72,4.32-9.51,7.09-10.03,2.77-.52,11.2,5.2,12.57,6.17,0,0,3.42,2.18.33,5.18ZM172.64,77.31c-1.7,1.9-16.89,9.01-21.77,10.42-4.88,1.41-7.27.42-6.48-5.1.79-5.52,9.83-10.98,11.79-11.65,1.96-.67,3.43-1.95,4.07-2.68s2.04,1.19,3.27,1.92c1.23.73,4.94.29,9.62,1.45,4.68,1.16-.51,5.64-.51,5.64Z"/>
  </g>
  <g>
    <path class="cls-1" d="M686.64,69.06c-3.07-2.72-4.2-3.81-5.12-2.98s-.27,3.41-9.32,5.9c-9.04,2.49-17.35,4.36-23.15,2.88-5.8-1.48-7.14-1.11-4.6-3.88,2.54-2.77,13.04-9.9,12.29-18.86-.75-8.96-6.34-14.91-13.51-13.5-7.17,1.41-18.15,8.67-19.36,14.17-1.21,5.5-1.33,6.76-.39,10.87.93,4.11,3.27,5.9.83,7.21-2.44,1.31-13.86,6.65-16.62,6.74-3.52.11-7.06,1.6-11.19-2.41-1.43-1.39-4.12-6.65-4.58-14.03-.48-7.77,5.43-13.85,13.96-14.4,8.78-.57,5.59-3.61,6.47-8.08.28-1.41-1.36-3.24-2.15-3.59-1.75-.76-4.42-.85-7.38-.18s-9.98,2.94-14.5,9.7c-4.52,6.77-8.13,10.96-7.33,17.78.81,6.82,1.56,4.84,1.75,6.38.19,1.54-1.36,2.99-2.85,3.95-1.49.96-4.15,3.35-5.77.55-1.63-2.8-7.49-16.29-15.15-19.69-2.72-1.21-3.94-1.68-4.42-1.84.22.03.45-.02.22-.42.56.96-2.15-1.7-2.42-1.59-1.42.57-2.06-2-7.61-.98s-10.94,3.09-13.16,7.88c-2.22,4.78-1.06,4.73-.18,6.51.88,1.78,1.09,3.6.91,3.81-.18.2,2.96,2.53,4.34,1.28s.57-4.86,2.75-5.58,3.98-6.06,11.61-3.34c7.62,2.72,8.44,3.45,8.22,4.53-.22,1.08.26,1.15-4.62.48s-12.55-1.07-16.6,5.48c-4.05,6.54-6,6.37-1.36,14.03,4.63,7.65,8.27,10.04,16.59,8.37,8.32-1.67,16.65-4.8,23.92-9.32,7.27-4.51,8.32-6.42,9.77-4.77,1.46,1.65,9.33,10.07,12.8,9.76,3.47-.31,2.89-.27,5.34.25,2.45.53,12.16-.56,19.58-4.4,7.41-3.85,8-5.33,8.53-4.5.54.84.83,4.11,9.13,6.7,8.29,2.59,18.72.63,22.83-.37,4.1-1,17.45-4.34,20.71-8.03,0,0,3.9-5.76.83-8.47ZM565.23,79.41c-4.66,4.43-15.75,4.24-16.84,4.2-1.09-.04-1.96-1.15-3.03-1.45-1.07-.3-.69-2.32-.2-3.26.49-.94,3.48-3.7,7.45-5.14,3.98-1.44,12.03,3.14,12.68,3.61.65.47.83,1.2-.06,2.04ZM636.53,63.44c-1.13,1.28-1.72.44-2.38-.1-.66-.54.38-1.62.72-2.42.34-.8.01-2.13.5-3.66.49-1.53,2.45-2.72,3.47-3.41,1.02-.69,5.37-4.01,7.12-3.83s.8,1.94.8,1.94c-.14,4.07-9.1,10.19-10.23,11.47Z"/>
    <path class="cls-1" d="M527.41,91.95s1.41,4.05,4.1,1.71,2.48-2.11,2.43-2.91-.37-1.36.5-2.43c.88-1.07,2.94-1.71,1.82-2.22s-2.88-.48-4.56-2.04-3.3-8.87-3.76-12.84-3.48-25.78-5.77-30-4.39-8.73-8.33-9.07c-3.94-.34-4.55,1.59-4.24,3.02.31,1.43,1.82,3.52.14,2.82s-1.24-1.88-3.46-3.71-10.08-11.58-24.92-14.44c-14.84-2.86-23.33-.3-26.72,2.3s-9.66,8.15-8.99,13.12c.67,4.97,1.31,4.78,1.67,5.92.36,1.14.21-.09.36,1.14s2.57,2.89,4.52.3,5.86-12.05,13.43-13.03c7.56-.97,19.17-1.11,26.01,3.84,6.84,4.95,13.79,9.32,11.87,14.73s-7.18,13.08-8.19,13.14-1.98.85-2.64-2.74-2.21-12.35-5.38-14.26-7.67-3.09-8.25-.73.83,7.57,1.8,10.27c.97,2.7-.53,1.99.59,3.7s4.15,6.1,3.35,8.33-.24,4.3-4.51,4.63c-4.26.34-5.95-1.14-7.55.08s-1.22,1.48-3.15,1.89-4.69,1.6-3.62,3.78c1.08,2.18,3.15,8.74,6.21,7.75,3.06-.99,5.2-1.56,7-1.81s2.26-1.01,4.56-1.44c2.3-.43,3.42-2.17,4.33-.48.9,1.69,2.94,7.66,5.56,11.27,2.62,3.61,5.34,8.96,9.77,6.51,4.42-2.45,4.14-2.29,3.37-3.11s.67-.98.02-2.11-1.5-.78-2.77-1.43c-1.27-.65-5.09-3.68-5.9-8.57-.81-4.89-2.25-5.82-1.69-7.45.55-1.63.43-1.33,2.66-2.85,2.23-1.52,10.42-8.77,12.13-12.87s1.42-6.33,2.05-6.81,2.16-1.51,2.3.73,2.33,11.86,2.11,14.22c-.22,2.36-.15,2.29.4,4.14s2.64,9.87,4.67,13.37,4.69,6.6,4.69,6.6Z"/>
  </g>
  <g>
    <path class="cls-1" d="M424.78,70.67c-3.91-5.92-10.24-3.71-12.65-2.81-2.41.9-8.03,2.31-8.63,4.32-.6,2.01-.2,3.91,0,4.42s1.37,1.51-.32,1.61-10.12,1.51-10.92.8c-.8-.7-1.61-.8,2.11-3.61,3.71-2.81,10.84-8.43,10.64-14.96-.2-6.52-2.21-13.35-7.23-16.06-5.02-2.71-11.85-3.71-16.96,0-5.12,3.71-12.95,9.54-13.35,15.86-.4,6.32-.3,9.6-.5,10.02-.2.42-.9,1.02.7,3.23,1.61,2.21,4.02,3.71,2.51,5.12-1.51,1.41-9.84,5.62-14.76,6.02-4.92.4-11.24-1.2-11.64-2.01s-1.2-1.91-.5-2.11c.7-.2,11.24-2.71,14.56-8.63,3.31-5.92,4.02-8.03,1.61-13.45-2.41-5.42-4.62-6.93-7.73-8.33-3.11-1.41-6.02-3.21-10.24.6-4.22,3.81-8.13,9.64-8.53,13.75-.4,4.12,0,6.32-1.61,6.32s-2.71-2.01-3.11.2c-.4,2.21-1.81,3.41-.9,4.42s.6,0,.7,1.91c.1,1.91,1.31,4.22,3.51,4.62,2.21.4,1.81.3,2.76,2.31.95,2.01,6.47,16.36,22.23,11.44,15.76-4.92,14.96-5.32,16.26-6.12,1.3-.8,2.71-2.71,7.53-.7,4.82,2.01,12.75,4.52,22.49,1.51,9.74-3.01,19.84-7.98,20.68-8.93,0,0,5.22-4.82,1.3-10.74ZM340.89,67.28c-.05-1.88,5.22-6.15,6.3-7,1.08-.85,2.01.15,2.48.58.48.43,1.61,1.08,2.28,1.31.68.23.38,1.04.25,1.43-.83,2.48-7.28,4.57-9.01,5.55s-2.26.03-2.31-1.86ZM375.74,66.51c-.8-3.97,3.16-6.63,6.73-9.84,3.56-3.21,6.37-3.46,9.74-2.71,3.36.75,5.32,4.77,5.32,4.77,1.15,2.81-12.9,12.3-16.46,14.66-3.56,2.36-4.52-2.91-5.32-6.88Z"/>
    <path class="cls-1" d="M289.16,38.95s.7-9.03,6.02-4.02c5.32,5.02,22.49,21.48,25.3,37.74,2.81,16.26,2.91,14.05.9,19.78-2.01,5.72-8.33,13.25-16.86,12.05-8.53-1.2-12.75-.1-19.07-7.03-6.32-6.93-9.54-11.54-10.34-12.45s-1.51-1.91-2.41.1-10.74,20.28-21.38,9.44c-10.64-10.84-12.35-30.82-12.45-33.83-.1-3.01-.9-15.96,1.51-18.17,2.41-2.21,7.13-1.61,7.53,6.02.4,7.63-1.51,13.13-.5,16.15,1,3.02,1.51,2.18,1.61,5.51s.6,8.45,2.81,11.26c2.21,2.81,5.52,7.83,10.44,1.81,4.92-6.02,6.83-7.43,5.42-11.04s-3.41-8.13-3.41-9.74c0-1.61,2.91-9.44,5.72-5.92,2.81,3.51,3.11,6.83,4.52,9.94,1.41,3.11,9.84,21.08,20.38,24.79,10.54,3.71,13.05,1,15.36-.5,2.31-1.51,9.64-5.62-.3-22.59-9.94-16.96-14.35-19.78-15.66-20.08s-5.12-1.51-5.12-9.24Z"/>
  </g>
</svg>