<?xml version="1.0" encoding="UTF-8"?>
<svg id="Layer_1" data-name="Layer 1" xmlns="http://www.w3.org/2000/svg" viewBox="0 0 1746.06 1527.04">
  <defs>
    <style>
      .cls-1, .cls-2 {
        fill: #231f20;
      }

      .cls-3 {
        fill: #f6a9b8;
      }

      .cls-4 {
        stroke: #000;
        stroke-miterlimit: 10;
      }

      .cls-4, .cls-5 {
        fill: #fff;
      }

      .cls-6 {
        fill: #61cdf6;
      }

      .cls-7 {
        fill: #151313;
      }

      .cls-2 {
        font-family: HelveticaLT-Condensed, 'Helvetica LT Condensed';
        font-size: 14px;
      }
    </style>
  </defs>
  <circle class="cls-4" cx="768.59" cy="1057.03" r="181.28"/>
  <rect class="cls-6" width="100" height="100"/>
  <rect class="cls-3" y="112.66" width="100" height="100"/>
  <rect class="cls-5" y="225.32" width="100" height="100"/>
  <rect class="cls-3" y="337.98" width="100" height="100"/>
  <rect class="cls-6" y="450.63" width="100" height="100"/>
  <circle class="cls-6" cx="768.59" cy="1057.03" r="162.63"/>
  <circle class="cls-3" cx="768.59" cy="1057.03" r="141.73"/>
  <circle class="cls-5" cx="768.59" cy="1057.03" r="121.89"/>
  <g>
    <path class="cls-1" d="M714.83,1162.06l-.77-.42.79-1.44h-.02c-.42.44-.89.69-1.4.76-.51.06-1.02-.04-1.53-.32-.45-.25-.79-.53-1.03-.84-.24-.32-.4-.65-.47-1.01-.08-.36-.09-.73-.04-1.12.05-.39.14-.78.28-1.18.14-.4.3-.8.49-1.19.19-.39.38-.77.58-1.13.3-.54.63-1.07,1-1.59.37-.52.78-.95,1.25-1.3.46-.34.97-.55,1.52-.63s1.15.06,1.8.42c.43.24.78.51,1.04.83.26.32.43.66.52,1.04s.1.78.02,1.19c-.07.42-.23.84-.47,1.26l-1.01-.55c.3-.57.42-1.1.37-1.59s-.36-.9-.93-1.24c-.32-.19-.63-.29-.92-.29-.29,0-.56.05-.81.16-.26.11-.5.28-.72.5-.23.22-.44.46-.63.72-.19.27-.38.54-.54.84-.17.29-.33.57-.47.83-.19.35-.4.75-.63,1.2-.23.45-.4.9-.52,1.36-.12.46-.14.89-.06,1.29.08.4.34.74.77,1.01.45.28.86.4,1.23.36.37-.04.7-.17,1.01-.4s.57-.52.81-.88c.24-.36.46-.72.66-1.09l-2-1.1.5-.92,3,1.64-2.63,4.8Z"/>
    <path class="cls-1" d="M720.79,1158.81c.16-.37.34-.74.53-1.11.19-.37.4-.71.63-1.04.23-.32.48-.61.76-.86.28-.25.58-.44.91-.57.33-.13.69-.19,1.09-.18.39,0,.82.12,1.29.32.46.2.82.44,1.09.72.27.28.47.59.59.91.13.33.19.68.2,1.06s-.03.76-.11,1.14c-.08.39-.19.78-.34,1.17-.15.39-.3.77-.46,1.14-.29.67-.61,1.3-.95,1.9-.34.6-.73,1.1-1.15,1.5-.43.4-.91.66-1.45.77-.54.12-1.15.02-1.83-.27-.69-.3-1.17-.68-1.44-1.16-.28-.47-.41-1-.41-1.59,0-.58.11-1.21.31-1.86.21-.66.45-1.32.74-1.99ZM725.89,1161.07c.23-.54.43-1.05.58-1.54.15-.49.22-.94.22-1.36,0-.42-.09-.78-.27-1.1-.18-.32-.47-.56-.88-.74-.4-.17-.78-.22-1.12-.13-.35.09-.67.27-.98.56-.3.29-.58.65-.84,1.09-.26.44-.5.93-.74,1.47-.3.69-.54,1.32-.73,1.87-.18.55-.28,1.04-.29,1.46-.01.42.07.78.25,1.08s.49.54.93.73.82.25,1.17.18c.34-.07.67-.25.96-.55.3-.3.59-.7.87-1.21.28-.51.57-1.11.88-1.8Z"/>
    <path class="cls-1" d="M730.15,1162.73c.13-.38.27-.76.43-1.15.16-.39.33-.75.53-1.09.2-.34.43-.65.68-.92.25-.27.54-.49.86-.65.32-.16.67-.25,1.07-.28.39-.03.83.04,1.32.2.48.16.86.37,1.15.62.29.25.52.54.67.86.15.32.25.66.29,1.03.04.37.04.75,0,1.15-.04.39-.12.79-.23,1.19-.11.4-.23.79-.35,1.17-.23.69-.49,1.35-.77,1.98-.29.63-.62,1.16-1.01,1.6-.39.44-.85.74-1.37.9-.53.16-1.14.13-1.85-.11-.71-.23-1.22-.58-1.54-1.02-.32-.44-.5-.96-.55-1.54-.05-.58,0-1.21.14-1.88.15-.67.33-1.36.55-2.05ZM735.43,1164.51c.19-.56.33-1.09.44-1.59.1-.5.14-.96.1-1.38-.04-.42-.16-.77-.37-1.08-.21-.3-.52-.52-.95-.66-.42-.14-.79-.15-1.13-.03-.34.12-.64.33-.92.65-.28.31-.52.7-.74,1.16-.22.46-.42.97-.6,1.53-.24.72-.42,1.36-.55,1.93-.13.57-.18,1.06-.16,1.48.02.42.14.77.35,1.05.21.28.54.5.99.65s.84.17,1.18.07c.34-.1.64-.31.91-.63.27-.32.52-.75.76-1.28.23-.53.47-1.16.71-1.87Z"/>
    <path class="cls-1" d="M738.89,1171.18l2.39-10.22,2.74.64c.78.18,1.37.48,1.77.88.4.4.66.88.79,1.41.13.54.15,1.12.07,1.75-.08.63-.2,1.25-.36,1.88-.17.62-.36,1.23-.59,1.82-.23.59-.52,1.1-.87,1.52-.35.43-.77.74-1.25.94-.49.2-1.07.22-1.74.07l-2.94-.69ZM740.23,1170.42l1.77.41c.41.1.77.1,1.1,0,.33-.09.62-.29.88-.6.26-.31.49-.72.68-1.25s.37-1.17.52-1.94c.12-.58.2-1.12.25-1.62.05-.49.03-.93-.05-1.3s-.24-.69-.47-.94-.57-.43-1.01-.53l-1.77-.41-1.91,8.18Z"/>
    <path class="cls-1" d="M752.06,1173.8l-1.4-.17-.87-10.69,1.25.16.43,7.35c.02.36.03.73.03,1.12,0,.39-.01.83-.03,1.32h.03c.1-.4.19-.79.29-1.16.1-.37.21-.75.33-1.12l2.4-7.08,1.4.17.45,7.35c.02.36.03.73.03,1.1,0,.38-.01.82-.03,1.34h.03c.1-.4.19-.79.29-1.16.1-.38.21-.75.32-1.12l2.38-7.08,1.25.16-3.69,10.12-1.4-.17-.47-7.24c-.03-.35-.04-.72-.04-1.1,0-.38.02-.87.05-1.45h-.03c-.11.49-.21.93-.31,1.33-.1.39-.21.77-.33,1.14l-2.36,6.89Z"/>
    <path class="cls-1" d="M762.92,1174.83l.27-10.5,5.12.13-.03,1.05-3.99-.1-.09,3.47,3.74.1-.03,1.05-3.74-.09-.1,3.88,4.02.1-.03,1.05-5.15-.13Z"/>
    <path class="cls-1" d="M771.96,1174.89l-.55-10.49,5.12-.27.05,1.05-3.99.21.18,3.47,3.74-.2.06,1.05-3.74.2.2,3.87,4.01-.21.05,1.05-5.15.27Z"/>
    <path class="cls-1" d="M781.21,1174.25l-1.46-10.4,2.67-.38c.2-.03.4-.05.62-.06.21-.01.43,0,.65,0,.22.02.43.06.63.12.2.06.39.15.56.28.35.25.61.56.79.93s.29.76.35,1.17c.04.29.06.57.05.85,0,.28-.05.56-.13.82-.08.26-.2.5-.35.73-.16.22-.36.42-.61.59-.17.1-.36.19-.58.26-.22.07-.44.14-.67.19-.23.05-.46.09-.7.13-.23.04-.45.07-.63.1l-.68.09.62,4.41-1.12.16ZM781.56,1168.65l1.1-.15c.39-.06.73-.13,1.03-.22.3-.09.55-.22.74-.39s.33-.39.4-.68c.08-.28.08-.65.02-1.09-.06-.42-.17-.74-.32-.98-.16-.24-.35-.4-.59-.5-.23-.1-.5-.15-.8-.15-.3,0-.62.03-.96.08l-1.16.16.55,3.91Z"/>
    <path class="cls-1" d="M790.82,1172.76l-2.21-10.26,1.11-.24,1.99,9.24,4.09-.88.22,1.03-5.2,1.12Z"/>
    <path class="cls-1" d="M798.46,1160.07l1.44-.44,5.8,9.22-1.2.36-1.65-2.66-3.1.94.16,3.11-1.2.36-.24-10.9ZM799.42,1160.66h-.03s.32,5.75.32,5.75l2.59-.78-2.89-4.96Z"/>
    <path class="cls-1" d="M810.58,1159.12c-.12-.28-.26-.54-.42-.78-.16-.24-.34-.43-.55-.57-.21-.14-.44-.23-.71-.26-.26-.03-.56.02-.89.15-.3.12-.54.29-.69.51-.16.22-.26.47-.31.74-.05.27-.05.57-.02.88s.1.62.18.93c.08.31.18.6.28.88.1.28.2.53.28.75.08.23.18.49.3.79.12.3.25.6.41.9.16.3.33.6.53.88.19.28.41.51.65.7.24.19.5.31.78.38.28.06.58.03.9-.09.31-.12.54-.29.7-.49.15-.2.25-.42.29-.67.04-.25.04-.51,0-.78-.05-.27-.1-.55-.18-.83-.03-.12-.06-.23-.1-.34-.04-.11-.07-.22-.1-.34l1.05-.42c.02.1.05.21.09.31.04.1.07.21.09.31.06.21.12.4.17.59.05.18.09.37.12.55.03.18.04.37.04.56,0,.19-.03.39-.07.6-.1.45-.29.84-.55,1.16s-.62.57-1.08.75c-.49.19-.94.28-1.34.27-.4-.02-.76-.11-1.09-.28-.33-.17-.62-.4-.89-.69-.27-.3-.51-.62-.72-.99-.22-.36-.41-.74-.59-1.14s-.34-.8-.5-1.19c-.14-.36-.28-.75-.41-1.15s-.23-.8-.3-1.19c-.07-.39-.11-.78-.1-1.16,0-.38.07-.74.2-1.07.13-.33.33-.63.59-.91s.63-.5,1.08-.68c.45-.18.88-.26,1.28-.23.41.03.78.13,1.12.32.34.19.64.46.9.79.26.34.47.73.63,1.17l-1.05.42Z"/>
    <path class="cls-1" d="M817.97,1163.89l-4.66-9.41,4.59-2.28.47.94-3.58,1.77,1.54,3.11,3.36-1.66.47.94-3.36,1.66,1.72,3.47,3.6-1.78.47.94-4.62,2.29Z"/>
    <path class="cls-1" d="M825.96,1159.72l-.7-1.21,1.08-.62.7,1.21-1.08.62Z"/>
    <path class="cls-1" d="M830.53,1148.19c-.18-.25-.37-.48-.58-.68-.2-.2-.42-.35-.66-.44-.23-.1-.48-.13-.75-.11-.26.02-.54.13-.84.33-.27.18-.46.4-.57.64-.11.25-.16.51-.15.79.01.28.07.57.17.87.1.3.22.59.37.87.15.28.3.55.46.81.16.25.3.48.43.67.13.21.28.44.45.71.18.26.37.53.59.8.22.27.45.51.7.75.25.23.51.42.78.55.27.13.55.2.84.21.29,0,.58-.09.86-.28.28-.19.47-.39.58-.62.11-.23.15-.47.15-.72,0-.25-.06-.51-.17-.76-.1-.26-.22-.52-.35-.78-.05-.11-.11-.22-.17-.32s-.12-.2-.17-.32l.94-.63c.04.1.09.19.16.28.06.09.11.19.16.28.1.19.2.37.29.54.09.17.17.34.23.51.07.17.12.35.15.54.04.19.06.39.06.6,0,.47-.11.88-.3,1.25-.19.37-.49.69-.9.96-.44.29-.86.47-1.25.54-.39.07-.77.05-1.12-.04-.35-.09-.69-.26-1.01-.5-.32-.23-.62-.51-.91-.81-.29-.31-.56-.64-.81-1s-.5-.71-.73-1.06c-.22-.33-.43-.67-.64-1.04-.21-.37-.39-.73-.54-1.1-.15-.37-.27-.74-.34-1.12s-.08-.74-.03-1.09c.06-.35.19-.69.39-1.01.21-.32.51-.62.91-.89.4-.27.8-.43,1.21-.49.4-.06.79-.03,1.16.08.37.12.72.31,1.04.59.32.28.61.62.86,1.01l-.94.63Z"/>
    <path class="cls-1" d="M835.19,1147.18c-.25-.31-.5-.64-.73-.98-.24-.34-.45-.69-.62-1.04s-.31-.71-.4-1.07c-.09-.36-.12-.72-.08-1.08.04-.35.15-.7.34-1.05.19-.34.49-.67.89-.99.39-.31.77-.52,1.15-.63.37-.11.74-.14,1.09-.1.35.04.69.15,1.02.32.33.17.65.38.96.63s.6.53.88.84c.28.31.54.62.79.93.45.57.87,1.14,1.24,1.72.37.58.63,1.16.79,1.72.15.56.16,1.11,0,1.64-.15.53-.51,1.03-1.1,1.5-.58.47-1.15.71-1.7.74-.55.03-1.08-.1-1.59-.37-.52-.28-1.02-.66-1.5-1.15-.48-.49-.96-1.02-1.42-1.58ZM839.57,1143.72c-.37-.46-.73-.87-1.1-1.23-.36-.36-.73-.64-1.1-.83s-.74-.29-1.1-.28c-.36.01-.72.16-1.07.44-.34.27-.56.58-.64.93-.08.35-.07.72.04,1.12.11.4.3.82.57,1.25.27.44.59.88.96,1.34.47.59.91,1.09,1.31,1.51.4.42.79.73,1.15.94.37.21.72.3,1.07.28.35-.02.71-.18,1.08-.48.37-.29.61-.61.7-.95.1-.34.09-.71-.04-1.11-.12-.4-.34-.85-.66-1.33s-.71-1.02-1.19-1.61Z"/>
    <path class="cls-1" d="M844.41,1132.41l1.43-1.39,7.34,7.51-.81.79-6.05-6.19c-.16-.16-.31-.32-.46-.49-.15-.16-.31-.32-.47-.47l-.02.02c.17.26.31.49.43.68.12.19.23.37.34.55l4.45,7.63-.97.95-7.61-4.72c-.16-.1-.33-.2-.49-.31-.17-.1-.37-.24-.62-.4l-.02.02c.16.16.32.32.48.48.17.16.33.32.48.48l6.03,6.17-.81.79-7.34-7.51,1.44-1.4,7.16,4.45c.2.12.39.26.58.4.19.15.41.33.67.55l.02-.02c-.16-.22-.32-.43-.47-.64-.15-.21-.3-.43-.44-.66l-4.26-7.27Z"/>
  </g>
  <text class="cls-2" transform="translate(664.54 1498.94) rotate(28.69) scale(.98 1)"><tspan x="0" y="0">G</tspan></text>
  <text class="cls-2" transform="translate(673.91 1503.95) rotate(23.57) scale(.98 1)"><tspan x="0" y="0">O</tspan></text>
  <text class="cls-2" transform="translate(683.71 1508.11) rotate(18.39) scale(.98 1)"><tspan x="0" y="0">O</tspan></text>
  <text class="cls-2" transform="translate(693.84 1511.37) rotate(13.16) scale(.98 1)"><tspan x="0" y="0">D</tspan></text>
  <text class="cls-2" transform="translate(704.31 1513.77) rotate(7.11) scale(.98 1)"><tspan x="0" y="0">W</tspan></text>
  <text class="cls-2" transform="translate(717.95 1515.24) rotate(1.45) scale(.98 1)"><tspan x="0" y="0">E</tspan></text>
  <text class="cls-2" transform="translate(726.99 1515.39) rotate(-2.99) scale(.98 1)"><tspan x="0" y="0">E</tspan></text>
  <text class="cls-2" transform="translate(736.09 1514.86) rotate(-8.02) scale(.98 1)"><tspan x="0" y="0">P</tspan></text>
  <text class="cls-2" transform="translate(745.75 1513.44) rotate(-12.17) scale(.98 1)"><tspan x="0" y="0">L</tspan></text>
  <text class="cls-2" transform="translate(754.61 1511.46) rotate(-16.82) scale(.98 1)"><tspan x="0" y="0">A</tspan></text>
  <text class="cls-2" transform="translate(764.01 1508.51) rotate(-21.69) scale(.98 1)"><tspan x="0" y="0">C</tspan></text>
  <text class="cls-2" transform="translate(773.11 1504.78) rotate(-26.36) scale(.98 1)"><tspan x="0" y="0">E</tspan></text>
  <text class="cls-2" transform="translate(781.06 1500.71) rotate(-29.92) scale(.98 1)"><tspan x="0" y="0">.</tspan></text>
  <text class="cls-2" transform="translate(785.88 1497.93) rotate(-33.67) scale(.98 1)"><tspan x="0" y="0">C</tspan></text>
  <text class="cls-2" transform="translate(794.03 1492.4) rotate(-38.64) scale(.98 1)"><tspan x="0" y="0">O</tspan></text>
  <text class="cls-2" transform="translate(802.36 1485.67) rotate(-44.34) scale(.98 1)"><tspan x="0" y="0">M</tspan></text>
  <circle class="cls-3" cx="768.59" cy="1057.03" r="102.05"/>
  <circle class="cls-6" cx="768.59" cy="1057.03" r="82.2"/>
  <circle class="cls-3" cx="768.59" cy="1057.03" r="62.36"/>
  <circle class="cls-5" cx="768.59" cy="1057.03" r="42.52"/>
  <circle class="cls-5" cx="768.59" cy="1057.03" r="22.68"/>
  <g>
    <g>
      <path class="cls-7" d="M715.01,975.04s.59-8.51,5.24-8.88c0,0,6.17.32,5.8,8.51,0,0-.03,2.85-2.98,7.21,0,0-.77,2.57-.24,4.49s.95,3.85,2.55,4.25,6.17-.03,6.76.88c.58.91,1.94,6.49.33,7.34s-2.41,1.46-2.71,2.12-1.93,1.6-3.79,1.25-7.77-3.75-9.45-9.87-4-1.11-4.61-.63-5.57,6.16-9.62,8.3c-4.05,2.13-27.52,13.4-36.77,3.35-9.25-10.05-11.04-16.75-9.03-24.43,2.01-7.68,8.57-23.33,25.09-30.62,16.52-7.3,19.58,2.78,20.13,3.79s2.87,8.54.88,9.83c-1.98,1.29-2.2.59-2.2.59l-.16-1.36s-1.35-.31-1.55-1.38c-.2-1.07-1.22-4.12-4.39-3.73s-17.75,1.6-28.31,23.17c0,0-2.7,7.44-1,10.64,1.7,3.2,10.03,12.77,28.34,3.11,18.3-9.66,21.35-14.62,21.53-16.27l.18-1.65Z"/>
      <path class="cls-7" d="M815.7,912.86c-1.51-1.67-9.71-12-11.11-12.58s.14-.77-1.4-.57c-1.54.19-2.39.07-2.72,1.33-.32,1.26-1.57,3.53-.6,6.77.97,3.25,2.84,4.38,3.95,5.38,1.11,1,22.1,23.05,24.57,29.9,2.47,6.86,2,3.33,2.55,7.3.55,3.97,1.05,9.71-1.87,13.49-2.91,3.78-9.3,11.34-12.84,12.17-3.55.84-10.5.27-5-10.09,5.5-10.36,7.81-7.36,8.16-9.46.35-2.1-.39-9.65-3-9.26-2.61.39-12.6,4.45-14.74,3.36-2.14-1.09-6.45-2.88-8.88-2.99-2.43-.11-5.82-2.44-7.57.1-1.75,2.54-1.48,3.04-3.44,3.41s-.9-.85-4.13.67c-3.24,1.52-5.91,3.59-13.05,4.53-7.14.94-10.11,1.86-11.48,1-1.36-.86.87-1.83-3.36-1.14-4.22.69-6.9.72-10.48,6.93-3.58,6.21-6.05,11.39-3.2,19.84,2.85,8.45,8.93,14.83,15.82,13.56,6.89-1.27,12.9-5.34,15.5-9.33,0,0,.75-1.43,1.61-.3.86,1.14,6.1,6,13.6,2.49,7.5-3.51,15.65-8.99,17.6-11.48,1.95-2.49,2.55-1.21,3.2.8.65,2.01,5.06,8.88,9.78,8.38,4.72-.5,11.2.53,23.63-19.44,12.43-19.96-19.59-53.12-21.1-54.79ZM763.31,977.66c-2.72,3.35-9.3,9.42-13.13,8.6-3.83-.82-6.92-1.78-6.87-7.55.05-5.77,3.16-9.95,5.86-10.8,2.69-.84,11.73,3.84,13.21,4.65,0,0,3.66,1.76.94,5.1ZM800.18,966.29c-1.47,2.09-15.71,10.94-20.39,12.92-4.68,1.97-7.17,1.27-7.04-4.3.13-5.58,8.47-12.06,10.34-12.96,1.87-.9,3.18-2.34,3.73-3.14s2.16.94,3.47,1.52c1.31.58,4.94-.29,9.73.31,4.78.6.16,5.66.16,5.66Z"/>
    </g>
    <g>
      <path class="cls-7" d="M889.41,1104.8c-3.28-2.46-4.5-3.46-5.34-2.56s0,3.42-8.82,6.63c-8.81,3.21-16.95,5.74-22.85,4.73-5.9-1.01-7.2-.53-4.89-3.5,2.31-2.97,12.2-10.92,10.74-19.79-1.46-8.87-7.51-14.35-14.55-12.37-7.04,1.98-17.4,10.1-18.16,15.67-.77,5.58-.78,6.85.48,10.86,1.26,4.02,3.73,5.62,1.41,7.12-2.32,1.5-13.28,7.74-16.03,8.05-3.5.39-6.91,2.16-11.34-1.5-1.53-1.27-4.64-6.3-5.69-13.62-1.1-7.7,4.3-14.24,12.77-15.47,8.7-1.27,5.28-4.05,5.8-8.57.16-1.43-1.62-3.12-2.43-3.4-1.8-.62-4.47-.49-7.37.41s-9.72,3.73-13.68,10.84c-3.96,7.11-7.23,11.57-5.88,18.31,1.35,6.74,1.94,4.7,2.25,6.22.31,1.52-1.12,3.09-2.53,4.17-1.41,1.08-3.87,3.68-5.71,1.01-1.84-2.66-8.77-15.63-16.68-18.41-2.81-.99-4.06-1.35-4.55-1.48.22,0,.44-.06.18-.44.63.91-2.28-1.52-2.54-1.39-1.37.68-2.21-1.83-7.67-.37s-10.66,3.96-12.49,8.91c-1.83,4.95-.68,4.8.34,6.5,1.02,1.7,1.38,3.5,1.21,3.72-.16.22,3.16,2.28,4.43.93s.18-4.89,2.3-5.79,3.48-6.36,11.3-4.26c7.82,2.11,8.69,2.76,8.55,3.85-.14,1.09.36,1.12-4.56.85s-12.6-.06-16.11,6.79c-3.51,6.85-5.47,6.83-.23,14.09,5.23,7.26,9.05,9.35,17.2,7.01,8.16-2.34,16.21-6.12,23.1-11.2,6.89-5.08,7.78-7.06,9.36-5.53,1.58,1.53,10.11,9.29,13.54,8.71,3.43-.59,2.86-.51,5.34-.18,2.49.33,12.08-1.53,19.16-5.96,7.08-4.43,7.54-5.96,8.15-5.16.6.79,1.16,4.03,9.63,5.95,8.47,1.91,18.71-.87,22.72-2.2,4.01-1.32,17.05-5.72,20-9.66,0,0,3.43-6.05.15-8.51ZM769.22,1124.84c-4.29,4.79-15.36,5.49-16.45,5.53-1.09.05-2.04-.99-3.14-1.2-1.09-.21-.87-2.25-.46-3.23.41-.97,3.17-3.97,7.02-5.72,3.85-1.76,12.24,2.17,12.92,2.58.68.42.92,1.13.11,2.03ZM839.01,1103.21c-1.03,1.37-1.67.58-2.38.1-.7-.49.25-1.65.53-2.47.27-.82-.16-2.13.21-3.69.36-1.56,2.22-2.9,3.18-3.68.96-.77,5.03-4.43,6.79-4.39s.95,1.87.95,1.87c.19,4.07-8.26,10.89-9.28,12.26Z"/>
      <path class="cls-7" d="M732.53,1140.37s1.73,3.93,4.22,1.37,2.31-2.31,2.19-3.09-.48-1.32.31-2.46c.79-1.14,2.8-1.94,1.64-2.36s-2.91-.24-4.71-1.67-4-8.58-4.78-12.5-5.53-25.42-8.15-29.44-5.07-8.35-9.03-8.37c-3.96-.02-4.41,1.95-3.99,3.35.42,1.4,2.09,3.36.36,2.8s-1.39-1.78-3.75-3.42-10.98-10.73-26-12.39c-15.03-1.66-23.28,1.57-26.45,4.43-3.18,2.87-8.98,8.9-7.91,13.79,1.07,4.9,1.69,4.66,2.14,5.77.45,1.11.2-.1.45,1.11s2.8,2.68,4.53-.06c1.73-2.74,4.88-12.48,12.34-14.06,7.46-1.58,19.02-2.64,26.24,1.75s14.49,8.18,13.01,13.74c-1.48,5.55-6.11,13.61-7.11,13.75s-1.91,1-2.85-2.52-3.2-12.14-6.51-13.79-7.89-2.46-8.28-.06,1.43,7.48,2.61,10.1c1.18,2.61-.37,2.02.89,3.64s4.63,5.75,4,8.03.1,4.3-4.12,4.98c-4.22.68-6.02-.66-7.52.68s-1.09,1.57-2.99,2.14-4.55,1.97-3.3,4.06c1.25,2.09,3.84,8.46,6.81,7.23,2.97-1.23,5.06-1.97,6.84-2.37s2.17-1.19,4.43-1.8c2.25-.61,3.24-2.44,4.27-.83,1.03,1.61,3.55,7.4,6.45,10.79,2.9,3.39,6.05,8.51,10.26,5.71,4.21-2.8,3.95-2.61,3.11-3.37s.58-1.04-.15-2.1-1.56-.66-2.88-1.2-5.37-3.26-6.57-8.07c-1.2-4.81-2.71-5.62-2.28-7.29.42-1.67.32-1.36,2.42-3.05,2.1-1.69,9.69-9.58,11.06-13.8s.91-6.43,1.5-6.95,2.03-1.68,2.35.54,3.27,11.63,3.24,14.01c-.03,2.37.03,2.29.73,4.1.7,1.8,3.42,9.62,5.73,12.95,2.31,3.33,5.21,6.21,5.21,6.21Z"/>
    </g>
    <g>
      <path class="cls-7" d="M861.15,1046.1c-3.76-6.03-10.14-3.99-12.57-3.15-2.43.84-8.09,2.09-8.75,4.08-.66,1.99-.31,3.91-.12,4.42s1.33,1.54-.36,1.6-10.16,1.23-10.94.51c-.78-.72-1.58-.85,2.2-3.56,3.79-2.71,11.06-8.14,11.04-14.67-.03-6.53-1.85-13.41-6.8-16.25-4.94-2.84-11.74-4.03-16.96-.45-5.22,3.58-13.2,9.19-13.77,15.5-.57,6.31-.56,9.58-.77,10-.21.42-.93,1,.62,3.25,1.55,2.25,3.91,3.82,2.37,5.18-1.54,1.36-9.98,5.36-14.91,5.63-4.93.27-11.21-1.51-11.59-2.32s-1.15-1.94-.45-2.12c.71-.18,11.31-2.41,14.78-8.24,3.47-5.83,4.23-7.92,1.97-13.4-2.26-5.48-4.43-7.05-7.5-8.54-3.07-1.49-5.93-3.37-10.25.33-4.32,3.7-8.39,9.42-8.9,13.52-.51,4.1-.17,6.32-1.77,6.28s-2.66-2.08-3.12.12c-.46,2.2-1.9,3.36-1.02,4.39s.6.02.65,1.93c.05,1.91,1.19,4.25,3.39,4.71,2.2.46,1.8.35,2.7,2.38.9,2.03,6.03,16.53,21.92,12.03,15.89-4.5,15.09-4.92,16.42-5.69,1.33-.77,2.78-2.64,7.54-.5,4.76,2.14,12.62,4.86,22.44,2.11,9.81-2.75,20.05-7.45,20.91-8.38,0,0,5.35-4.68,1.59-10.7ZM777.38,1040.47c0-1.88,5.38-6.01,6.48-6.83,1.1-.82,2,.2,2.47.64.47.44,1.58,1.12,2.25,1.37.67.24.35,1.05.21,1.44-.89,2.46-7.4,4.37-9.15,5.3s-2.26-.04-2.26-1.92ZM812.24,1040.62c-.7-3.99,3.34-6.54,6.99-9.65,3.65-3.12,6.46-3.29,9.81-2.45,3.34.84,5.19,4.91,5.19,4.91,1.08,2.84-13.22,11.95-16.85,14.21-3.63,2.26-4.44-3.03-5.13-7.02Z"/>
      <path class="cls-7" d="M726.43,1010.76s.94-9.01,6.13-3.85c5.18,5.16,21.9,22.08,24.28,38.41,2.37,16.33,2.53,14.13.37,19.79-2.16,5.67-8.68,13.02-17.18,11.59-8.5-1.43-12.74-.44-18.88-7.53-6.14-7.09-9.22-11.8-10-12.72s-1.45-1.95-2.41.04-11.28,19.98-21.63,8.86c-10.35-11.12-11.52-31.14-11.54-34.15-.02-3.01-.48-15.98,1.99-18.12s7.17-1.41,7.36,6.22c.2,7.64-1.86,13.09-.93,16.13.92,3.05,1.45,2.22,1.46,5.55s.38,8.47,2.51,11.33c2.13,2.87,5.31,7.97,10.39,2.09s7.02-7.24,5.71-10.89-3.19-8.22-3.15-9.82c.04-1.61,3.16-9.35,5.88-5.77,2.72,3.59,2.93,6.91,4.25,10.06,1.32,3.15,9.27,21.34,19.71,25.33,10.44,3.99,13.02,1.35,15.37-.09,2.35-1.44,9.78-5.36.3-22.59-9.48-17.22-13.82-20.15-15.12-20.49s-5.08-1.64-4.87-9.37Z"/>
    </g>
  </g>
  <g>
    <g>
      <path class="cls-7" d="M1145.28,936.23s1.58-8.38,6.25-8.2c0,0,6.09,1.05,4.76,9.14,0,0-.37,2.83-3.81,6.81,0,0-1.06,2.46-.77,4.43s.49,3.94,2.03,4.52c1.54.59,6.13.7,6.61,1.68.47.97,1.16,6.67-.53,7.33s-2.57,1.17-2.94,1.78-2.1,1.37-3.92.8-7.27-4.64-8.22-10.92-3.84-1.58-4.5-1.17-6.26,5.46-10.54,7.1c-4.27,1.64-28.91,10.06-36.91-1.01-8-11.07-8.99-17.94-6.09-25.33,2.9-7.39,11.26-22.15,28.52-27.45,17.26-5.3,19.11,5.07,19.55,6.14s1.84,8.82-.28,9.87c-2.12,1.05-2.26.33-2.26.33v-1.37s-1.3-.46-1.37-1.55c-.07-1.09-.73-4.24-3.92-4.22s-17.82-.5-30.85,19.67c0,0-3.56,7.07-2.25,10.45,1.31,3.38,8.46,13.87,27.77,6.43,19.32-7.44,22.92-12,23.3-13.62l.38-1.62Z"/>
      <path class="cls-7" d="M1252.6,886.36c-1.3-1.83-8.22-13.06-9.55-13.8s.23-.74-1.32-.74c-1.55,0-2.38-.21-2.85,1-.47,1.22-1.98,3.32-1.4,6.66.58,3.34,2.31,4.69,3.29,5.81.98,1.12,19.23,25.49,20.87,32.59,1.64,7.1,1.59,3.55,1.67,7.55.07,4.01-.1,9.77-3.44,13.17-3.34,3.41-10.57,10.16-14.19,10.58-3.62.41-10.46-.97-3.78-10.61,6.68-9.64,8.62-6.39,9.22-8.43.6-2.04.75-9.62-1.89-9.55-2.64.08-13.04,2.93-15.04,1.6-2-1.33-6.07-3.62-8.47-4.02-2.4-.39-5.49-3.11-7.53-.79-2.04,2.32-1.82,2.85-3.82,2.98s-.79-.95-4.18.18c-3.39,1.13-6.29,2.87-13.49,2.96-7.2.1-10.26.66-11.51-.36-1.25-1.01,1.08-1.71-3.2-1.53-4.27.18-6.94-.1-11.22,5.64-4.28,5.75-7.35,10.59-5.51,19.32,1.84,8.73,7.12,15.78,14.11,15.33,6.99-.45,13.44-3.78,16.49-7.44,0,0,.92-1.34,1.63-.1.72,1.23,5.35,6.68,13.21,4.08,7.86-2.6,16.6-7.08,18.83-9.32,2.23-2.24,2.68-.9,3.08,1.17.41,2.07,3.98,9.41,8.72,9.47,4.75.06,11.06,1.85,25.76-16.51,14.69-18.36-13.19-55.06-14.49-56.9ZM1192.94,944.53c-3.09,3-10.35,8.25-14.05,6.99-3.71-1.27-6.66-2.58-5.94-8.31.73-5.72,4.32-9.51,7.09-10.03,2.77-.52,11.2,5.2,12.57,6.17,0,0,3.42,2.18.33,5.18ZM1230.89,937.59c-1.7,1.9-16.89,9.01-21.77,10.42-4.88,1.41-7.27.42-6.48-5.1.79-5.52,9.83-10.98,11.79-11.65,1.96-.67,3.43-1.95,4.07-2.68s2.04,1.19,3.27,1.92c1.23.73,4.94.29,9.62,1.45,4.68,1.16-.51,5.64-.51,5.64Z"/>
    </g>
    <g>
      <path class="cls-7" d="M1744.89,929.34c-3.07-2.72-4.2-3.81-5.12-2.98s-.27,3.41-9.32,5.9c-9.04,2.49-17.35,4.36-23.15,2.88-5.8-1.48-7.14-1.11-4.6-3.88,2.54-2.77,13.04-9.9,12.29-18.86-.75-8.96-6.34-14.91-13.51-13.5-7.17,1.41-18.15,8.67-19.36,14.17-1.21,5.5-1.33,6.76-.39,10.87.93,4.11,3.27,5.9.83,7.21-2.44,1.31-13.86,6.65-16.62,6.74-3.52.11-7.06,1.6-11.19-2.41-1.43-1.39-4.12-6.65-4.58-14.03-.48-7.77,5.43-13.85,13.96-14.4,8.78-.57,5.59-3.61,6.47-8.08.28-1.41-1.36-3.24-2.15-3.59-1.75-.76-4.42-.85-7.38-.18s-9.98,2.94-14.5,9.7c-4.52,6.77-8.13,10.96-7.33,17.78.81,6.82,1.56,4.84,1.75,6.38.19,1.54-1.36,2.99-2.85,3.95-1.49.96-4.15,3.35-5.77.55-1.63-2.8-7.49-16.29-15.15-19.69-2.72-1.21-3.94-1.68-4.42-1.84.22.03.45-.02.22-.42.56.96-2.15-1.7-2.42-1.59-1.42.57-2.06-2-7.61-.98s-10.94,3.09-13.16,7.88c-2.22,4.78-1.06,4.73-.18,6.51.88,1.78,1.09,3.6.91,3.81-.18.2,2.96,2.53,4.34,1.28s.57-4.86,2.75-5.58,3.98-6.06,11.61-3.34c7.62,2.72,8.44,3.45,8.22,4.53-.22,1.08.26,1.15-4.62.48s-12.55-1.07-16.6,5.48c-4.05,6.54-6,6.37-1.36,14.03,4.63,7.65,8.27,10.04,16.59,8.37,8.32-1.67,16.65-4.8,23.92-9.32,7.27-4.51,8.32-6.42,9.77-4.77,1.46,1.65,9.33,10.07,12.8,9.76,3.47-.31,2.89-.27,5.34.25,2.45.53,12.16-.56,19.58-4.4,7.41-3.85,8-5.33,8.53-4.5.54.84.83,4.11,9.13,6.7,8.29,2.59,18.72.63,22.83-.37,4.1-1,17.45-4.34,20.71-8.03,0,0,3.9-5.76.83-8.47ZM1623.48,939.69c-4.66,4.43-15.75,4.24-16.84,4.2-1.09-.04-1.96-1.15-3.03-1.45-1.07-.3-.69-2.32-.2-3.26.49-.94,3.48-3.7,7.45-5.14,3.98-1.44,12.03,3.14,12.68,3.61.65.47.83,1.2-.06,2.04ZM1694.78,923.71c-1.13,1.28-1.72.44-2.38-.1-.66-.54.38-1.62.72-2.42.34-.8.01-2.13.5-3.66.49-1.53,2.45-2.72,3.47-3.41,1.02-.69,5.37-4.01,7.12-3.83s.8,1.94.8,1.94c-.14,4.07-9.1,10.19-10.23,11.47Z"/>
      <path class="cls-7" d="M1585.66,952.22s1.41,4.05,4.1,1.71,2.48-2.11,2.43-2.91-.37-1.36.5-2.43c.88-1.07,2.94-1.71,1.82-2.22s-2.88-.48-4.56-2.04-3.3-8.87-3.76-12.84-3.48-25.78-5.77-30-4.39-8.73-8.33-9.07c-3.94-.34-4.55,1.59-4.24,3.02.31,1.43,1.82,3.52.14,2.82s-1.24-1.88-3.46-3.71-10.08-11.58-24.92-14.44c-14.84-2.86-23.33-.3-26.72,2.3s-9.66,8.15-8.99,13.12c.67,4.97,1.31,4.78,1.67,5.92.36,1.14.21-.09.36,1.14s2.57,2.89,4.52.3,5.86-12.05,13.43-13.03c7.56-.97,19.17-1.11,26.01,3.84,6.84,4.95,13.79,9.32,11.87,14.73s-7.18,13.08-8.19,13.14-1.98.85-2.64-2.74-2.21-12.35-5.38-14.26-7.67-3.09-8.25-.73.83,7.57,1.8,10.27c.97,2.7-.53,1.99.59,3.7s4.15,6.1,3.35,8.33-.24,4.3-4.51,4.63c-4.26.34-5.95-1.14-7.55.08s-1.22,1.48-3.15,1.89-4.69,1.6-3.62,3.78c1.08,2.18,3.15,8.74,6.21,7.75,3.06-.99,5.2-1.56,7-1.81s2.26-1.01,4.56-1.44c2.3-.43,3.42-2.17,4.33-.48.9,1.69,2.94,7.66,5.56,11.27,2.62,3.61,5.34,8.96,9.77,6.51,4.42-2.45,4.14-2.29,3.37-3.11s.67-.98.02-2.11-1.5-.78-2.77-1.43c-1.27-.65-5.09-3.68-5.9-8.57-.81-4.89-2.25-5.82-1.69-7.45.55-1.63.43-1.33,2.66-2.85,2.23-1.52,10.42-8.77,12.13-12.87s1.42-6.33,2.05-6.81,2.16-1.51,2.3.73,2.33,11.86,2.11,14.22c-.22,2.36-.15,2.29.4,4.14s2.64,9.87,4.67,13.37,4.69,6.6,4.69,6.6Z"/>
    </g>
    <g>
      <path class="cls-7" d="M1483.03,930.95c-3.91-5.92-10.24-3.71-12.65-2.81-2.41.9-8.03,2.31-8.63,4.32-.6,2.01-.2,3.91,0,4.42s1.37,1.51-.32,1.61-10.12,1.51-10.92.8c-.8-.7-1.61-.8,2.11-3.61,3.71-2.81,10.84-8.43,10.64-14.96-.2-6.52-2.21-13.35-7.23-16.06-5.02-2.71-11.85-3.71-16.96,0-5.12,3.71-12.95,9.54-13.35,15.86-.4,6.32-.3,9.6-.5,10.02-.2.42-.9,1.02.7,3.23,1.61,2.21,4.02,3.71,2.51,5.12-1.51,1.41-9.84,5.62-14.76,6.02-4.92.4-11.24-1.2-11.64-2.01s-1.2-1.91-.5-2.11c.7-.2,11.24-2.71,14.56-8.63,3.31-5.92,4.02-8.03,1.61-13.45-2.41-5.42-4.62-6.93-7.73-8.33-3.11-1.41-6.02-3.21-10.24.6-4.22,3.81-8.13,9.64-8.53,13.75-.4,4.12,0,6.32-1.61,6.32s-2.71-2.01-3.11.2c-.4,2.21-1.81,3.41-.9,4.42s.6,0,.7,1.91c.1,1.91,1.31,4.22,3.51,4.62,2.21.4,1.81.3,2.76,2.31.95,2.01,6.47,16.36,22.23,11.44,15.76-4.92,14.96-5.32,16.26-6.12,1.3-.8,2.71-2.71,7.53-.7,4.82,2.01,12.75,4.52,22.49,1.51,9.74-3.01,19.84-7.98,20.68-8.93,0,0,5.22-4.82,1.3-10.74ZM1399.14,927.56c-.05-1.88,5.22-6.15,6.3-7,1.08-.85,2.01.15,2.48.58.48.43,1.61,1.08,2.28,1.31.68.23.38,1.04.25,1.43-.83,2.48-7.28,4.57-9.01,5.55s-2.26.03-2.31-1.86ZM1433.99,926.78c-.8-3.97,3.16-6.63,6.73-9.84,3.56-3.21,6.37-3.46,9.74-2.71,3.36.75,5.32,4.77,5.32,4.77,1.15,2.81-12.9,12.3-16.46,14.66-3.56,2.36-4.52-2.91-5.32-6.88Z"/>
      <path class="cls-7" d="M1347.41,899.23s.7-9.03,6.02-4.02c5.32,5.02,22.49,21.48,25.3,37.74,2.81,16.26,2.91,14.05.9,19.78-2.01,5.72-8.33,13.25-16.86,12.05-8.53-1.2-12.75-.1-19.07-7.03-6.32-6.93-9.54-11.54-10.34-12.45s-1.51-1.91-2.41.1-10.74,20.28-21.38,9.44c-10.64-10.84-12.35-30.82-12.45-33.83-.1-3.01-.9-15.96,1.51-18.17,2.41-2.21,7.13-1.61,7.53,6.02.4,7.63-1.51,13.13-.5,16.15,1,3.02,1.51,2.18,1.61,5.51s.6,8.45,2.81,11.26c2.21,2.81,5.52,7.83,10.44,1.81,4.92-6.02,6.83-7.43,5.42-11.04s-3.41-8.13-3.41-9.74c0-1.61,2.91-9.44,5.72-5.92,2.81,3.51,3.11,6.83,4.52,9.94,1.41,3.11,9.84,21.08,20.38,24.79,10.54,3.71,13.05,1,15.36-.5,2.31-1.51,9.64-5.62-.3-22.59-9.94-16.96-14.35-19.78-15.66-20.08s-5.12-1.51-5.12-9.24Z"/>
    </g>
  </g>
</svg>